
        <svg xmlns="http://www.w3.org/2000/svg" xmlns:xlink="http://www.w3.org/1999/xlink" version="1.1" width="2820.790383919573" height="3245.5172165058716" viewBox="0 0 2820.790383919573 3245.5172165058716">
			
			<g transform="scale(12.275860825293575) translate(10, 10)">
				<defs id="SvgjsDefs1326"/><g id="SvgjsG1327" featureKey="monogramFeature-0" transform="matrix(4.889415298601384,0,0,4.889415298601384,28.332733315252277,-88.149306713683)" fill="#000"><path d="M27.518 18.029000000000003 l1.1358 0 l0 29.173 c0 7.0728 -5.7546 12.827 -12.827 12.827 s-12.827 -5.754 -12.827 -12.827 l0 -29.173 l7.0373 0 l0 39.317 c1.7086 0.97938 3.682 1.5476 5.789 1.5476 c6.4476 0 11.692 -5.2447 11.692 -11.692 l0 -29.173 z M4.1346 47.202 c0 3.8535 1.8824 7.2678 4.767 9.399 l0 -37.437 l-4.767 0 l0 28.038 z"/></g><g id="SvgjsG1328" featureKey="nameFeature-0" transform="matrix(0.6697320523584657,0,0,0.6697320523584657,-1.808277052332863,217.19092692651833)" fill="#000"><path d="M24.26 12 c0.36 0 0.6 0.24 0.6 0.6 l0 16.08 c0 7.88 -4 11.9 -11.08 11.9 c-7.1 0 -11.08 -4.02 -11.08 -11.9 l0 -16.08 c0 -0.36 0.24 -0.6 0.6 -0.6 l1.3 0 c0.36 0 0.6 0.24 0.6 0.6 l0 16.08 c0 6.66 3.44 9.58 8.58 9.58 c5.12 0 8.58 -2.92 8.58 -9.58 l0 -16.08 c0 -0.36 0.24 -0.6 0.6 -0.6 l1.3 0 z M48.127500000000005 28.7 l5.6 10.6 c0.22 0.42 0.02 0.7 -0.44 0.7 l-1.48 0 c-0.32 0 -0.54 -0.14 -0.7 -0.44 l-5.56 -10.58 l-0.58 0 l-8.06 0 l0 10.42 c0 0.36 -0.24 0.6 -0.6 0.6 l-1.3 0 c-0.36 0 -0.6 -0.24 -0.6 -0.6 l0 -26.8 c0 -0.36 0.24 -0.6 0.6 -0.6 l9.96 0 c6.7 0 9.44 3.12 9.44 8.48 c0 4.44 -1.86 7.34 -6.28 8.22 z M36.907500000000006 26.619999999999997 l8.2 0 c3.98 0 6.84 -1.16 6.84 -6.14 s-2.86 -6.12 -6.84 -6.12 l-8.2 0 l0 12.26 z M76.47500000000001 24.8 c4.08 1 5.68 4.08 5.68 7.14 c0 5.6 -3.26 8.06 -9.8 8.06 l-9 0 c-0.36 0 -0.6 -0.24 -0.6 -0.6 l0 -26.8 c0 -0.36 0.24 -0.6 0.6 -0.6 l9.2 0 c6.46 0 8.22 3.48 8.22 6.56 c0 2.82 -1.2 5.24 -4.3 6.24 z M78.275 18.64 c0 -2.92 -1.98 -4.28 -5.94 -4.28 l-7.08 0 l0 9.48 l7.32 0 c3.72 0 5.7 -2.04 5.7 -5.2 z M72.155 37.64 c4.84 0 7.4 -1.32 7.4 -5.66 c0 -3.24 -2.04 -5.9 -7.14 -5.9 l-7.16 0 l0 11.56 l6.9 0 z M112.72250000000001 39.32 c0.16 0.4 -0.04 0.68 -0.48 0.68 l-1.26 0 c-0.32 0 -0.54 -0.12 -0.68 -0.48 l-2.3 -6.06 l-14.12 0 l-2.3 6.06 c-0.14 0.36 -0.36 0.48 -0.68 0.48 l-1.26 0 c-0.44 0 -0.64 -0.28 -0.48 -0.68 l10.32 -26.84 c0.12 -0.32 0.42 -0.48 0.74 -0.48 l1.48 0 c0.32 0 0.58 0.16 0.7 0.48 z M94.7825 31.14 l12.32 0 l-6.16 -16.2 z M140.69 12 c0.36 0 0.6 0.24 0.6 0.6 l0 26.8 c0 0.3 -0.18 0.52 -0.44 0.58 l0 0.02 l-2.1 0 c-0.32 0 -0.56 -0.12 -0.72 -0.4 l-14.4 -24.18 l0 23.98 c0 0.36 -0.24 0.6 -0.6 0.6 l-1.3 0 c-0.36 0 -0.6 -0.24 -0.6 -0.6 l0 -26.8 c0 -0.32 0.18 -0.54 0.46 -0.58 l0 -0.02 l2.08 0 c0.32 0 0.56 0.12 0.72 0.4 l14.4 24.14 l0 -23.94 c0 -0.36 0.24 -0.6 0.6 -0.6 l1.3 0 z M190.745 12 c0.36 0 0.6 0.24 0.6 0.6 l0 26.8 c0 0.36 -0.24 0.6 -0.6 0.6 l-1.3 0 c-0.36 0 -0.6 -0.24 -0.6 -0.6 l0 -12.58 l-15.76 0 l0 12.58 c0 0.36 -0.24 0.6 -0.6 0.6 l-1.3 0 c-0.36 0 -0.6 -0.24 -0.6 -0.6 l0 -26.8 c0 -0.36 0.24 -0.6 0.6 -0.6 l1.3 0 c0.36 0 0.6 0.24 0.6 0.6 l0 11.86 l15.76 0 l0 -11.86 c0 -0.36 0.24 -0.6 0.6 -0.6 l1.3 0 z M215.0925 40.52 c-7.92 0 -14.3 -6.4 -14.3 -14.4 c0 -8.04 6.38 -14.44 14.3 -14.44 c7.88 0 14.26 6.4 14.26 14.44 c0 8 -6.38 14.4 -14.26 14.4 z M215.0925 38.22 c6.62 0 11.86 -5.36 11.86 -12.1 c0 -6.78 -5.24 -12.14 -11.86 -12.14 c-6.66 0 -11.9 5.36 -11.9 12.14 c0 6.74 5.24 12.1 11.9 12.1 z M259.65999999999997 12 c0.36 0 0.6 0.24 0.6 0.6 l0 16.08 c0 7.88 -4 11.9 -11.08 11.9 c-7.1 0 -11.08 -4.02 -11.08 -11.9 l0 -16.08 c0 -0.36 0.24 -0.6 0.6 -0.6 l1.3 0 c0.36 0 0.6 0.24 0.6 0.6 l0 16.08 c0 6.66 3.44 9.58 8.58 9.58 c5.12 0 8.58 -2.92 8.58 -9.58 l0 -16.08 c0 -0.36 0.24 -0.6 0.6 -0.6 l1.3 0 z M278.5275 24.46 c5.52 1.18 10.26 2.7 10.26 8.52 c0 4.26 -3.06 7.62 -10.14 7.62 c-5.84 0 -9.66 -2.24 -10.04 -6.38 c-0.04 -0.4 0.2 -0.74 0.56 -0.74 l1.36 0 c0.36 0 0.58 0.3 0.6 0.62 c0.26 2.54 3.06 4.2 7.52 4.2 c4.96 0 7.66 -1.74 7.66 -5.36 c0 -4.3 -3.32 -4.96 -7.78 -6.06 c-5.12 -1.26 -9.18 -2.84 -9.18 -8.16 c0 -4.22 3.02 -7.06 9 -7.06 c5.64 0 9.16 2.18 9.58 6.3 c0.04 0.4 -0.2 0.56 -0.56 0.56 l-1.26 0 c-0.36 0 -0.58 -0.12 -0.6 -0.44 c-0.26 -2.44 -2.92 -4.18 -7.18 -4.18 c-3.92 0 -6.6 1.58 -6.6 4.82 c0 3.42 2.7 4.84 6.8 5.74 z M315.3349999999999 37.64 c0.36 0 0.6 0.24 0.6 0.6 l0 1.16 c0 0.36 -0.24 0.6 -0.6 0.6 l-16.9 0 c-0.36 0 -0.6 -0.24 -0.6 -0.6 l0 -26.8 c0 -0.36 0.24 -0.6 0.6 -0.6 l16.86 0 c0.36 0 0.6 0.24 0.6 0.6 l0 1.16 c0 0.36 -0.24 0.6 -0.6 0.6 l-14.96 0 l0 9.62 l13.86 0 c0.36 0 0.6 0.24 0.6 0.6 l0 1.16 c0 0.36 -0.24 0.6 -0.6 0.6 l-13.86 0 l0 11.3 l15 0 z"/></g>
			</g>
		</svg>
	